<svg width="8656" height="12681" viewBox="0 0 8656 12681" fill="none" xmlns="http://www.w3.org/2000/svg">
<rect width="8656" height="12680" fill="url(#paint0_linear_15_397)"/>
<path d="M5308.69 11477C5144.7 11688.8 4485.08 12266.6 4175.77 12529C3999.95 12390.1 3648.3 12048.8 3648.3 11794.7C3459.32 12024.4 3048.24 12492.9 2915.85 12529C2783.46 12565.1 2602.37 12362.3 2528.38 12256.4C2435.22 12364.6 2216.7 12556.9 2087.91 12460.4C1959.12 12363.9 1671.27 11976.4 1543.44 11794.7C1430.12 12031.9 1107.57 12521.5 724 12581.9L8155 12680L7815.02 12483C7695.86 12553.6 7374.75 12652.4 7043.57 12483C6712.4 12313.5 6484.28 11786.9 6411.62 11544.7C6265.23 11792.6 5868.32 11943.6 5688.17 11988.1C5541.66 11806.4 5399 11609 5308.69 11477Z" fill="url(#paint1_linear_15_397)"/>
<path d="M6638.1 12483C6552.44 12498.3 6332.32 12509.2 6137.14 12430C6032.43 12387.6 5857.72 12198.3 5688.17 11988.1M5688.17 11988.1C5541.66 11806.4 5399 11609 5308.69 11477C5144.7 11688.8 4485.08 12266.6 4175.77 12529C3999.95 12390.1 3648.3 12048.8 3648.3 11794.7C3459.32 12024.4 3048.24 12492.9 2915.85 12529C2783.46 12565.1 2602.37 12362.3 2528.38 12256.4C2435.22 12364.6 2216.7 12556.9 2087.91 12460.4C1959.12 12363.9 1671.27 11976.4 1543.44 11794.7C1430.12 12031.9 1107.57 12521.5 724 12581.9L8155 12680L7815.02 12483C7695.86 12553.6 7374.75 12652.4 7043.57 12483C6712.4 12313.5 6484.28 11786.9 6411.62 11544.7C6265.23 11792.6 5868.32 11943.6 5688.17 11988.1Z" stroke="#52162C"/>
<path d="M252 909.132L260.981 936.771H290.042L266.531 953.853L275.511 981.493L252 964.41L228.489 981.493L237.469 953.853L213.958 936.771H243.019L252 909.132Z" fill="#D9D9D9"/>
<path d="M3724 1961.81L3732.98 1989.45H3762.04L3738.53 2006.53L3747.51 2034.17L3724 2017.09L3700.49 2034.17L3709.47 2006.53L3685.96 1989.45H3715.02L3724 1961.81Z" fill="#D9D9D9"/>
<path d="M6444 2260.87L6452.98 2288.51H6482.04L6458.53 2305.59L6467.51 2333.23L6444 2316.15L6420.49 2333.23L6429.47 2305.59L6405.96 2288.51H6435.02L6444 2260.87Z" fill="#D9D9D9"/>
<path d="M2348 5598.34L2356.98 5625.98H2386.04L2362.53 5643.06L2371.51 5670.7L2348 5653.62L2324.49 5670.7L2333.47 5643.06L2309.96 5625.98H2339.02L2348 5598.34Z" fill="#D9D9D9"/>
<path d="M660 5227.51L668.981 5255.15H698.042L674.531 5272.23L683.511 5299.87L660 5282.79L636.489 5299.87L645.469 5272.23L621.958 5255.15H651.019L660 5227.51Z" fill="#D9D9D9"/>
<path d="M7876 3170L7884.98 3197.64H7914.04L7890.53 3214.72L7899.51 3242.36L7876 3225.28L7852.49 3242.36L7861.47 3214.72L7837.96 3197.64H7867.02L7876 3170Z" fill="#D9D9D9"/>
<path d="M4044 9865.88L4052.98 9893.52H4082.04L4058.53 9910.6L4067.51 9938.24L4044 9921.16L4020.49 9938.24L4029.47 9910.6L4005.96 9893.52H4035.02L4044 9865.88Z" fill="#D9D9D9"/>
<path d="M2452 1519.21L2460.98 1546.85H2490.04L2466.53 1563.93L2475.51 1591.57L2452 1574.49L2428.49 1591.57L2437.47 1563.93L2413.96 1546.85H2443.02L2452 1519.21Z" fill="#D9D9D9"/>
<path d="M7772 7930.98L7780.98 7958.62H7810.04L7786.53 7975.7L7795.51 8003.34L7772 7986.26L7748.49 8003.34L7757.47 7975.7L7733.96 7958.62H7763.02L7772 7930.98Z" fill="#D9D9D9"/>
<path d="M1052 8564.98L1060.98 8592.62H1090.04L1066.53 8609.7L1075.51 8637.34L1052 8620.26L1028.49 8637.34L1037.47 8609.7L1013.96 8592.62H1043.02L1052 8564.98Z" fill="#D9D9D9"/>
<path d="M5260 3540.83L5268.98 3568.47H5298.04L5274.53 3585.55L5283.51 3613.19L5260 3596.11L5236.49 3613.19L5245.47 3585.55L5221.96 3568.47H5251.02L5260 3540.83Z" fill="#D9D9D9"/>
<path d="M4876 7560.15L4884.98 7587.79H4914.04L4890.53 7604.87L4899.51 7632.51L4876 7615.43L4852.49 7632.51L4861.47 7604.87L4837.96 7587.79H4867.02L4876 7560.15Z" fill="#D9D9D9"/>
<path d="M5980 5227.51L5988.98 5255.15H6018.04L5994.53 5272.23L6003.51 5299.87L5980 5282.79L5956.49 5299.87L5965.47 5272.23L5941.96 5255.15H5971.02L5980 5227.51Z" fill="#D9D9D9"/>
<path d="M1468 3540.83L1476.98 3568.47H1506.04L1482.53 3585.55L1491.51 3613.19L1468 3596.11L1444.49 3613.19L1453.47 3585.55L1429.96 3568.47H1459.02L1468 3540.83Z" fill="#D9D9D9"/>
<path d="M3620 5227.51L3628.98 5255.15H3658.04L3634.53 5272.23L3643.51 5299.87L3620 5282.79L3596.49 5299.87L3605.47 5272.23L3581.96 5255.15H3611.02L3620 5227.51Z" fill="#D9D9D9"/>
<path d="M2408 8864.04L2419.23 8898.59H2455.55L2426.16 8919.94L2437.39 8954.49L2408 8933.14L2378.61 8954.49L2389.84 8919.94L2360.45 8898.59H2396.77L2408 8864.04Z" fill="#D9D9D9"/>
<path d="M8206 5508.62L8217.23 5543.17H8253.55L8224.16 5564.52L8235.39 5599.07L8206 5577.72L8176.61 5599.07L8187.84 5564.52L8158.45 5543.17H8194.77L8206 5508.62Z" fill="#D9D9D9"/>
<path d="M516 9865.88L527.226 9900.43H563.553L534.164 9921.78L545.389 9956.33L516 9934.98L486.611 9956.33L497.836 9921.78L468.447 9900.43H504.774L516 9865.88Z" fill="#D9D9D9"/>
<path d="M5640 6340L5651.23 6374.55H5687.55L5658.16 6395.9L5669.39 6430.45L5640 6409.1L5610.61 6430.45L5621.84 6395.9L5592.45 6374.55H5628.77L5640 6340Z" fill="#D9D9D9"/>
<path d="M4732 1399.58L4743.23 1434.13H4779.55L4750.16 1455.49L4761.39 1490.04L4732 1468.68L4702.61 1490.04L4713.84 1455.49L4684.45 1434.13H4720.77L4732 1399.58Z" fill="#D9D9D9"/>
<path d="M7678 10326.4L7689.23 10361H7725.55L7696.16 10382.3L7707.39 10416.9L7678 10395.5L7648.61 10416.9L7659.84 10382.3L7630.45 10361H7666.77L7678 10326.4Z" fill="#D9D9D9"/>
<path d="M1424 6058.89L1435.23 6093.44H1471.55L1442.16 6114.79L1453.39 6149.34L1424 6127.99L1394.61 6149.34L1405.84 6114.79L1376.45 6093.44H1412.77L1424 6058.89Z" fill="#D9D9D9"/>
<path d="M7256 4964.34L7267.23 4998.89H7303.55L7274.16 5020.24L7285.39 5054.79L7256 5033.44L7226.61 5054.79L7237.84 5020.24L7208.45 4998.89H7244.77L7256 4964.34Z" fill="#D9D9D9"/>
<path d="M4782 5227.51L4793.23 5262.06H4829.55L4800.16 5283.41L4811.39 5317.96L4782 5296.61L4752.61 5317.96L4763.84 5283.41L4734.45 5262.06H4770.77L4782 5227.51Z" fill="#D9D9D9"/>
<path d="M6377 8582.92L6388.23 8617.47H6424.55L6395.16 8638.83L6406.39 8673.38L6377 8652.02L6347.61 8673.38L6358.84 8638.83L6329.45 8617.47H6365.77L6377 8582.92Z" fill="#D9D9D9"/>
<path d="M3368 8864.04L3379.23 8898.59H3415.55L3386.16 8919.94L3397.39 8954.49L3368 8933.14L3338.61 8954.49L3349.84 8919.94L3320.45 8898.59H3356.77L3368 8864.04Z" fill="#D9D9D9"/>
<defs>
<linearGradient id="paint0_linear_15_397" x1="4328" y1="0" x2="4328" y2="12680" gradientUnits="userSpaceOnUse">
<stop stop-color="#430B26"/>
<stop offset="1" stop-color="#812043"/>
</linearGradient>
<linearGradient id="paint1_linear_15_397" x1="5496.18" y1="11007.4" x2="5122.32" y2="12330.9" gradientUnits="userSpaceOnUse">
<stop stop-color="#EA4160"/>
<stop offset="1" stop-color="#52162C"/>
</linearGradient>
</defs>
</svg>
